<?xml version="1.0" encoding="utf-8"?>
<!-- Generator: Adobe Illustrator 16.2.0, SVG Export Plug-In . SVG Version: 6.00 Build 0)  -->
<!DOCTYPE svg PUBLIC "-//W3C//DTD SVG 1.1//EN" "http://www.w3.org/Graphics/SVG/1.1/DTD/svg11.dtd">
<svg version="1.1" id="Warstwa_1" xmlns="http://www.w3.org/2000/svg" xmlns:xlink="http://www.w3.org/1999/xlink" x="0px" y="0px"
	 width="212.613px" height="145.886px" viewBox="0 0 212.613 145.886" enable-background="new 0 0 212.613 145.886"
	 xml:space="preserve">
<g>
	<defs>
		<rect id="SVGID_1_" width="212.613" height="145.886"/>
	</defs>
	<clipPath id="SVGID_2_">
		<use xlink:href="#SVGID_1_"  overflow="visible"/>
	</clipPath>
	<path clip-path="url(#SVGID_2_)" fill="#231F20" d="M2.898,97.228c1.719-8.248,6.056-16.076,9.923-23.494
		c4.251-8.154,9.116-15.978,14.365-23.524c10.212-14.678,22.571-29.872,37.48-39.984c-0.966,0.259-1.932,0.518-2.898,0.776
		c1.195,4.629-0.723,9.068-2.157,13.447c-1.658,5.062-3.577,10.037-5.583,14.971c-3.798,9.338-8.176,18.435-12.646,27.466
		c-9.227,18.644-19.066,36.998-26.623,56.413c0.207-0.534,2.676-0.208,2.897-0.776c7.34-18.855,16.803-36.74,25.83-54.816
		c4.506-9.022,8.842-18.127,12.76-27.422c2.069-4.91,3.95-9.895,5.695-14.928c1.656-4.774,4.036-10.05,2.725-15.13
		c0.008,0.033-2.654,0.611-2.898,0.776c-14.52,9.849-26.32,24.451-36.484,38.577c-5.37,7.465-10.173,15.327-14.551,23.409
		C6.506,80.789,1.823,89.26,0,98.004C0.088,97.583,2.802,97.689,2.898,97.228"/>
	<path clip-path="url(#SVGID_2_)" fill="#231F20" d="M8.881,98.839c-1.819,0.296-2.904,0.338-0.646-1.356
		c1.997-1.498,4.007-2.979,6.019-4.458c3.52-2.588,7.073-5.132,10.637-7.659c7.639-5.414,15.396-10.66,23.228-15.789
		c-0.788,0.516-2.098,0.252-2.898,0.776c-7.311,4.789-14.543,9.692-21.697,14.711c-3.577,2.509-7.123,5.062-10.656,7.632
		c-2.019,1.469-4.026,2.955-6.03,4.443c-1.43,1.062-4.695,3.101-0.855,2.476C6.967,99.456,7.902,98.998,8.881,98.839"/>
	<path clip-path="url(#SVGID_2_)" fill="#231F20" d="M38.166,86.615c0.977-1.429,1.954-2.859,2.931-4.288
		c-0.965,0.259-1.931,0.518-2.897,0.776c-2.99,4.605-5.146,9.462-6.556,14.769c0.107-0.401,2.502-0.436,2.898-0.775
		c6.222-5.338,10.319-12.645,16.785-17.729c-0.966,0.259-1.932,0.519-2.898,0.776c-1.296,3.514-2.464,7.057-3.51,10.652
		c0.121-0.413,2.488-0.434,2.898-0.775c2.148-1.793,3.968-3.716,5.639-5.959c-0.966,0.258-1.932,0.517-2.898,0.775
		c-0.243,1.613-0.238,2.898,0.015,4.51c-0.022-0.143,2.687-0.526,2.898-0.776c2.244-2.655,4.487-5.311,6.731-7.966
		c-0.966,0.259-1.932,0.518-2.898,0.775c-0.353,1.673-0.301,2.648,0.228,4.272c0.001,0.004,2.654-0.622,2.897-0.776
		c2.383-1.513,3.959-3.307,5.152-5.865c-0.227,0.486-2.395,0.42-2.898,0.776c-1.642,1.165-8.602,9.138-3.136,7.706
		c3.473-0.909,6.182-2.705,8.676-5.365c-0.966,0.26-1.932,0.519-2.898,0.777c-0.929,1.731-2.532,4.867,0.881,4.084
		c0.599-0.137,1.192-0.307,1.785-0.467c4.717-1.278,8.777-6.098,12.48-9.115c-0.966,0.258-1.932,0.518-2.897,0.776
		c-0.225,0.532-0.45,1.063-0.675,1.595c0.232-0.549,2.651-0.194,2.898-0.776c0.224-0.531,0.449-1.063,0.674-1.595
		c-0.208,0.491-2.42,0.387-2.897,0.776c-3.59,2.925-7.226,6.819-11.421,8.815c0.966-0.259,1.932-0.517,2.898-0.775
		c-3.3,0.447-1.847-2.197-0.828-4.096c-0.316,0.589-2.402,0.248-2.898,0.777c-1.933,2.062-3.952,3.543-6.499,4.769
		c0.949-0.257,1.897-0.512,2.845-0.768c-4.061,0.948,2.79-7.102,3.91-7.896c-0.966,0.259-1.932,0.518-2.898,0.776
		c-1.193,2.559-2.768,4.354-5.151,5.865c0.966-0.258,1.932-0.517,2.897-0.776c-0.528-1.625-0.58-2.601-0.227-4.271
		c-0.088,0.417-2.558,0.374-2.898,0.775c-2.243,2.656-4.487,5.312-6.731,7.967c0.966-0.259,1.932-0.518,2.898-0.776
		c-0.254-1.611-0.258-2.896-0.015-4.509c-0.058,0.386-2.601,0.378-2.898,0.775c-1.671,2.244-3.491,4.167-5.639,5.959
		c0.966-0.259,1.932-0.517,2.898-0.775c1.046-3.596,2.214-7.14,3.51-10.653c-0.167,0.453-2.446,0.422-2.898,0.776
		c-6.466,5.084-10.563,12.39-16.785,17.728c0.966-0.258,1.932-0.517,2.898-0.775c1.41-5.308,3.566-10.163,6.555-14.77
		c-0.398,0.614-2.466,0.146-2.897,0.776c-0.977,1.43-1.955,2.858-2.932,4.288C35.688,86.778,37.729,87.252,38.166,86.615"/>
	<path clip-path="url(#SVGID_2_)" fill="#231F20" d="M119.003,34.093c7.338-10.073,14.034-20.557,20.089-31.45l-2.898,0.776
		c-8.612,42.533-39.286,76.226-49.822,118.098c0.114-0.452,2.774-0.285,2.898-0.776c10.535-41.873,41.209-75.566,49.822-118.098
		c-0.093,0.451-2.636,0.303-2.898,0.776c-6.054,10.893-12.751,21.377-20.088,31.45C116.556,34.253,118.537,34.733,119.003,34.093"/>
	<path clip-path="url(#SVGID_2_)" fill="#231F20" d="M103.529,69.465c3.365-9.322,10.321-17.067,16.22-24.875
		c5.188-6.868,10.822-16.879,19.101-20.39c-0.966,0.259-1.933,0.518-2.898,0.777c5.87-0.458,0.094,12.85-1.031,15.564
		c-2.692,6.494-6.414,12.644-10.043,18.647c-6.824,11.294-14.503,23.446-25.615,30.958c0.966-0.259,1.932-0.518,2.898-0.777
		c-0.407-3.796,5.475-8.593,7.81-11.249c3.538-4.024,7.319-7.83,11.212-11.511c-0.966,0.259-1.933,0.517-2.898,0.776
		c-1.35,4.062-2.271,8.136-2.801,12.383c0.043-0.342,2.587-0.431,2.898-0.777c5.359-5.969,10.003-12.413,13.969-19.387
		c-0.343,0.604-2.405,0.217-2.898,0.777c-2.985,3.395-4.544,7.094-4.887,11.603c0.016-0.21,2.574-0.587,2.898-0.777
		c4.31-2.515,7.098-6.136,8.43-10.946c-0.116,0.417-2.499,0.42-2.898,0.777c-1.66,1.481-9.066,9.654-2.779,7.988
		c4.121-1.093,7.044-3.647,9.224-7.352l-2.897,0.776c-1.408,2.962-1.797,5.676-1.272,8.913c-0.011-0.07,2.633-0.618,2.897-0.776
		c2.788-1.661,4.232-3.943,4.54-7.174c-0.027,0.293-2.583,0.482-2.897,0.777c-1.624,1.521-2.17,2.782-2.167,5.008
		c0-0.277,2.671-0.438,2.897-0.776c12.483-18.664,23.72-38.101,33.662-58.233c-0.267,0.54-2.391,0.335-2.897,0.776
		c-6.946,6.038-10.62,15.172-14.563,23.283c-4.461,9.178-8.867,18.555-11.641,28.4c-0.783,2.781-4.736,16.056,1.2,14.465
		c5.646-1.513,8.707-8.352,10.328-13.498l-2.897,0.777c-0.725,3.224-2.267,7.298,2.51,6.032c2.926-0.776,7.016-3.516,5.132-6.903
		c-0.042-0.075-2.671,0.614-2.897,0.776c-2.909,2.085-7.114,9.311-0.877,7.64c5.266-1.411,9.983-6.818,13.905-10.393l-2.897,0.777
		c-5.524,14.58-11.058,29.155-16.849,43.632c-2.829,7.073-5.721,14.125-8.761,21.112c-1.471,3.38-3.032,6.717-4.654,10.027
		c-0.821,1.676-3.041,8.068-4.89,8.607c0.9-0.239,1.801-0.477,2.702-0.716c0.037-0.143,0.074-0.286,0.111-0.429
		c-0.676,0.208-1.933,0.475-2.796,0.741c-0.089,0.026-0.179,0.054-0.267,0.082c-0.017,0.005-0.034,0.011-0.051,0.017
		c0.035,0.122,0.069,0.244,0.104,0.365c0.009,0.032,2.469-0.648,2.701-0.717c1.553-0.452,2.031-2.515,2.745-3.819
		c1.769-3.232,3.362-6.559,4.922-9.894c3.458-7.392,6.507-14.98,9.573-22.54c6.352-15.649,12.321-31.452,18.305-47.247
		c-0.185,0.488-2.449,0.369-2.897,0.777c-3.873,3.529-7.919,7.337-12.461,9.989c0.966-0.258,1.932-0.517,2.897-0.776
		c-5.302,0.182,0.666-6.82,2.33-8.013l-2.897,0.776c1.516,2.727-1.125,5.006-3.301,6.398c0.947-0.256,1.896-0.511,2.845-0.767
		c-4.248,0.835-1.793-4.525-1.391-6.313c-0.103,0.457-2.741,0.282-2.897,0.777c-1.295,4.107-4.265,11.565-8.833,13.077
		c0.949-0.253,1.897-0.506,2.847-0.759c-3.939-1.31-0.454-12.053,0.253-14.838c1.593-6.273,4.261-12.264,6.879-18.159
		c2.803-6.308,5.821-12.518,8.96-18.665c2.792-5.467,5.675-10.781,10.365-14.859l-2.897,0.776
		c-9.943,20.133-21.179,39.57-33.662,58.233l2.897-0.776c-0.003-2.226,0.542-3.487,2.167-5.009l-2.897,0.777
		c-0.309,3.23-1.752,5.512-4.54,7.173c0.966-0.258,1.932-0.517,2.897-0.776c-0.523-3.238-0.137-5.952,1.272-8.913
		c-0.278,0.585-2.546,0.179-2.897,0.776c-1.753,2.978-4.087,5.598-7.395,6.847l2.897-0.777c-4.882,0.18,2.693-7.228,3.849-8.259
		l-2.898,0.777c-1.331,4.809-4.12,8.43-8.43,10.946l2.898-0.777c0.343-4.509,1.9-8.207,4.887-11.603
		c-0.966,0.259-1.933,0.518-2.898,0.777c-3.965,6.973-8.608,13.418-13.969,19.387l2.898-0.777c0.528-4.246,1.45-8.321,2.801-12.382
		c-0.155,0.465-2.478,0.378-2.898,0.776c-3.896,3.687-7.629,7.519-11.212,11.512c-2.347,2.616-8.213,7.481-7.809,11.249
		c-0.012-0.114,2.628-0.595,2.898-0.777c10.705-7.236,17.938-18.668,24.681-29.438c3.751-5.991,7.249-12.184,10.269-18.576
		c1.529-3.237,7.041-14.762,3.019-17.254c-0.701-0.435-3.277,0.614-3.98,0.816c-4.692,1.343-8.407,6.401-11.299,10.027
		c-4.74,5.941-9.252,12.072-13.813,18.151c-4.054,5.405-8.088,10.732-10.404,17.146C100.819,69.722,103.33,70.02,103.529,69.465"/>
	<path clip-path="url(#SVGID_2_)" fill="#231F20" d="M45.501,129.324c24.61-9.688,49.115-19.599,74.486-27.161
		c28.252-8.421,57.526-13.676,86.83-16.693c1.97-0.203,3.839-1.353,5.795-1.554c-28.877,2.975-57.282,8.516-85.298,16.072
		c-30.002,8.094-58.737,19.522-87.609,30.889C41.55,130.151,43.648,130.053,45.501,129.324"/>
	<path clip-path="url(#SVGID_2_)" fill="#231F20" d="M172.182,51.368c0.647-0.007,1.315-0.271,1.933-0.436
		c0.669-0.179,1.444-0.283,2.005-0.717c0.861-0.666,0.848-1.956-0.046-2.555c-0.374-0.251-0.856-0.293-1.29-0.231
		c-0.88,0.126-1.766,0.447-2.62,0.685c-0.523,0.147-0.934,0.287-1.268,0.741c-0.374,0.508-0.388,1.242-0.417,1.843
		c0.003-0.054,1.364-0.35,1.453-0.374c0.098-0.026,1.44-0.313,1.445-0.402c0.034-0.712,0.094-1.405,0.528-1.996
		c0.088-0.119,0.212-0.206,0.332-0.29c0.965-0.671-3.243,0.611-2.057,0.539c0.3-0.018,0.596,0.071,0.866,0.191
		c1.399,0.619,0.808,2.493-0.385,2.94c0.899-0.244,1.799-0.487,2.698-0.731c-0.052,0.013-0.104,0.026-0.156,0.039
		c0.066-0.015,0.134-0.03,0.2-0.045c-0.107,0.02-0.216,0.028-0.325,0.023c-0.459,0.004-1.015,0.256-1.452,0.373
		C173.203,51.079,172.622,51.363,172.182,51.368"/>
</g>
</svg>
